<?xml version="1.0" standalone="no"?>
<!DOCTYPE svg PUBLIC "-//W3C//DTD SVG 1.1//EN" "http://www.w3.org/Graphics/SVG/1.1/DTD/svg11.dtd">
<svg t="1702705993347" class="icon" viewBox="0 0 1024 1024" version="1.1"
    xmlns="http://www.w3.org/2000/svg" p-id="2908"
    xmlns:xlink="http://www.w3.org/1999/xlink" width="200" height="200">
    <path d="M768 576l192-64v320L768 768v96a31.146667 31.146667 0 0 1-8.96 23.04 31.146667 31.146667 0 0 1-23.04 8.96h-640a31.146667 31.146667 0 0 1-23.04-8.96 31.146667 31.146667 0 0 1-8.96-23.04v-384a31.146667 31.146667 0 0 1 8.96-23.04 31.146667 31.146667 0 0 1 23.04-8.96h640a31.146667 31.146667 0 0 1 23.04 8.96c5.973333 6.016 8.96 13.696 8.96 23.04v96zM192 768v64h384V768h-384zM384 288c1.322667-45.312 17.024-82.986667 47.018667-112.981333 29.994667-29.994667 67.669333-45.653333 112.981333-47.018667 45.312 1.322667 82.986667 17.024 112.981333 47.018667 29.994667 29.994667 45.653333 67.669333 47.018667 112.981333-1.365333 45.312-17.024 82.986667-47.018667 112.981333-29.994667 29.994667-67.669333 45.653333-112.981333 47.018667-45.312-1.322667-82.986667-17.024-112.981333-47.018667C401.024 370.986667 385.365333 333.312 384 288z m64 0c0 17.365333 4.352 33.365333 13.013333 48 8.618667 14.677333 20.48 26.325333 35.456 34.986667 15.018667 8.704 30.848 13.013333 47.488 13.013333s32.682667-4.352 48-13.013333a91.306667 91.306667 0 0 0 35.498667-34.986667c8.32-14.72 12.501333-30.72 12.501333-48-0.64-27.306667-9.984-50.005333-27.989333-68.010667-18.005333-18.005333-40.661333-27.008-68.010667-27.008-27.306667 0-50.005333 9.002667-68.010666 27.008-17.962667 18.005333-27.306667 40.704-27.989334 68.010667h0.042667zM128 320c0-23.338667 5.674667-44.672 16.981333-64A128.298667 128.298667 0 0 1 192 209.493333 125.013333 125.013333 0 0 1 256 192a125.013333 125.013333 0 0 1 64 17.493333c20.010667 11.690667 35.669333 27.178667 47.018667 46.506667 11.306667 19.328 16.981333 40.661333 16.981333 64-0.64 36.010667-13.184 66.176-37.504 90.496-24.32 24.32-54.528 36.821333-90.496 37.504-36.010667-0.64-66.176-13.184-90.496-37.504-24.32-24.32-36.821333-54.528-37.504-90.496z m64 0c0.64 18.005333 6.997333 33.024 19.029333 45.013333 11.989333 11.946667 27.008 17.962667 44.970667 18.005334 17.962667 0 32.981333-5.973333 44.970667-18.005334 12.032-12.032 18.048-27.050667 18.048-45.013333 0-17.962667-6.016-32.938667-18.048-44.970667A60.885333 60.885333 0 0 0 256 256.938667c-17.962667 0-32.981333 6.058667-44.970667 18.048-12.032 11.946667-18.346667 26.965333-19.029333 44.970666z" fill="white" fill-opacity=".65" p-id="2909"></path>
</svg>